PathFileType	4	(X/Y/Z)	E:\3-PhD\Data\MocapData\ElaboratedData\012\pre\dynamicElaborations\Run_baselineA1\Run_baselineA1.trc
DataRate	CameraRate	NumFrames	NumMarkers	Units	OrigDataRate	OrigDataStartFrame	OrigNumFrames
200	200	4	56	mm	200	8.290000e+02	106
Frame#	Time	FHD			LBHD			RBHD			C7			T10			CLAV			LSHO			LUUPA			LMUPA			LDUPA			LLEP			LMEP			LRAD			LUL			LRFIN			RSHO			RUPA1			RMUPA			RDUPA			RLEP			RMEP			RRAD			RUL			RUFIN			LASI			RASI			USACR			LSACR			RSACR			LTHI1			LTHI2			LTHI3			LTHI4			LLFC			LTIB1			LTIB2			LTIB3			LTIB4			LHEE			LMT1			LMT5			LMT2			RTHI			RTHI2			RTHI3			RTHI4			RLFC			RTIB1			RTIB2			RTIB3			RTIB4			RLMAL			RHEE			RMT1			RMT2			RMT5		
		X1	Y1	Z1	X2	Y2	Z2	X3	Y3	Z3	X4	Y4	Z4	X5	Y5	Z5	X6	Y6	Z6	X7	Y7	Z7	X8	Y8	Z8	X9	Y9	Z9	X10	Y10	Z10	X11	Y11	Z11	X12	Y12	Z12	X13	Y13	Z13	X14	Y14	Z14	X15	Y15	Z15	X16	Y16	Z16	X17	Y17	Z17	X18	Y18	Z18	X19	Y19	Z19	X20	Y20	Z20	X21	Y21	Z21	X22	Y22	Z22	X23	Y23	Z23	X24	Y24	Z24	X25	Y25	Z25	X26	Y26	Z26	X27	Y27	Z27	X28	Y28	Z28	X29	Y29	Z29	X30	Y30	Z30	X31	Y31	Z31	X32	Y32	Z32	X33	Y33	Z33	X34	Y34	Z34	X35	Y35	Z35	X36	Y36	Z36	X37	Y37	Z37	X38	Y38	Z38	X39	Y39	Z39	X40	Y40	Z40	X41	Y41	Z41	X42	Y42	Z42	X43	Y43	Z43	X44	Y44	Z44	X45	Y45	Z45	X46	Y46	Z46	X47	Y47	Z47	X48	Y48	Z48	X49	Y49	Z49	X50	Y50	Z50	X51	Y51	Z51	X52	Y52	Z52	X53	Y53	Z53	X54	Y54	Z54	X55	Y55	Z55	X56	Y56	Z56	
882	4.405000	-1751.989775	1745.274906	379.509861	-1917.785762	1744.189931	293.215439	-1889.462606	1725.369746	442.724980	-1967.285053	1565.931909	379.643306	-2116.929708	1245.561240	364.353149	-1849.426002	1458.452134	324.544012	-1894.954164	1594.400434	215.188626	-2060.166406	1513.855474	77.866546	-2046.783372	1471.517823	54.358560	-2108.105399	1472.210577	46.945001	-2150.691433	1404.000032	1.868970	-2176.105561	1379.021095	82.506555	-2074.139020	1132.915435	-32.796524	-2121.556203	1144.793976	-94.695477	-2058.532549	1049.882565	-61.364941	-1830.947485	1503.555869	493.546803	-1898.742482	1287.669630	590.694038	-1862.806748	1261.058087	571.444082	-1900.006089	1218.125969	585.506699	-1897.907996	1145.354940	575.415495	-1968.133280	1146.302675	507.611468	-1714.195920	1205.795325	372.304983	-1676.732694	1140.679047	393.064214	-1639.003336	1223.623029	333.041773	-2029.296639	1022.150893	208.632510	-2051.425548	976.035194	432.699445	-2175.608278	1133.301775	336.692931	-2198.627326	1110.582422	305.474446	-2196.444218	1104.783307	362.122202	-2002.196822	833.366574	143.499877	-1920.111873	811.188199	162.447901	-1894.585846	845.609255	185.083521	-1900.660731	756.709761	169.716670	-1805.288559	642.798148	197.219633	-1814.027805	454.195498	249.213511	-1829.451620	426.200083	168.649798	-1812.839345	410.548424	209.486591	-1844.089548	334.862757	226.629593	-1971.254564	157.388646	196.246260	-1771.921522	154.843723	256.985225	-1774.963831	157.957460	154.066313	-1748.561829	168.665310	208.125059	-2282.721529	728.827621	462.781773	-2278.693577	661.985497	450.275809	-2251.360228	646.655044	439.166093	-2345.272475	614.335307	435.553022	-2421.438234	519.680985	415.891428	-2495.449890	404.157611	378.066322	-2595.927036	413.010061	417.768371	-2574.599336	374.282407	401.540362	-2606.514814	336.529688	371.864715	-2780.964554	286.562133	376.612240	-2831.905807	312.835819	321.236568	-2738.158939	112.045856	299.107117	-2741.170583	109.862484	342.813119	-2786.543199	131.099282	388.154979	
883	4.410000	-1723.842016	1746.974016	377.275399	-1889.381352	1746.073155	290.425115	-1861.515861	1727.131587	440.058513	-1939.050115	1567.349998	377.482084	-2087.318528	1247.061454	365.016254	-1820.838480	1460.457810	321.825540	-1867.677494	1595.158419	212.730993	-2032.795316	1514.062319	76.012682	-2019.551770	1471.684114	52.649469	-2080.925451	1472.299911	45.433870	-2123.004453	1403.417863	0.415067	-2147.614153	1378.647097	81.030066	-2043.538271	1132.859267	-35.236315	-2091.617879	1144.019415	-96.723413	-2027.004544	1049.978462	-63.980322	-1801.556583	1505.750954	490.380634	-1869.380577	1290.750056	589.549730	-1833.659039	1263.791215	570.486889	-1871.083625	1221.146552	584.878390	-1869.526402	1148.178796	575.430933	-1939.122724	1149.175688	507.525419	-1686.401902	1204.976298	370.657849	-1649.473514	1139.800898	391.931300	-1611.162316	1221.577574	330.897619	-2000.691408	1023.342850	208.446697	-2020.181083	978.014592	432.440650	-2145.548425	1135.071894	337.280210	-2168.675108	1112.293435	306.166124	-2165.874744	1106.341969	362.693148	-1974.450476	832.558851	142.144176	-1892.327455	809.758645	160.369722	-1866.520875	843.963285	183.142848	-1873.275870	755.208376	167.502774	-1778.001380	641.029682	193.954797	-1777.105121	451.870462	246.784981	-1791.235418	422.352279	166.362582	-1773.885417	408.021279	207.410352	-1800.216683	330.764113	225.487746	-1916.235132	144.929998	197.108011	-1717.450172	158.070233	259.299899	-1719.882770	158.916076	156.283350	-1694.730010	172.509795	210.380481	-2250.637377	728.832475	462.711194	-2246.558935	662.124528	449.322015	-2219.329319	646.969610	437.908757	-2313.285491	614.559132	434.713100	-2390.438656	520.984868	414.155922	-2468.630988	408.606462	375.900456	-2568.739464	421.408792	415.512664	-2548.927036	381.999947	399.259190	-2582.436224	345.845296	369.284136	-2758.675503	304.222946	374.243220	-2807.601526	334.724760	319.634179	-2726.556352	127.493273	294.962612	-2728.936575	125.494169	338.801703	-2773.396340	148.791943	383.739516	
884	4.415000	-1695.673611	1748.617791	375.077453	-1860.913273	1747.811377	287.617137	-1833.560055	1728.787781	437.382459	-1910.725994	1568.704896	375.241270	-2057.820505	1248.667808	365.468412	-1792.231020	1462.266233	319.193482	-1840.312637	1595.728575	210.108238	-2005.086011	1513.397356	73.818819	-1991.873359	1470.926247	50.784748	-2053.268788	1471.358160	43.645784	-2094.727204	1401.720499	-1.191462	-2118.643667	1377.178501	79.403287	-2012.070633	1131.842062	-37.290379	-2060.734801	1142.173136	-98.418165	-1994.436283	1049.187081	-66.140606	-1772.259935	1507.711142	487.438033	-1840.671979	1293.701834	588.454079	-1805.170339	1266.331001	569.637343	-1842.910000	1224.052589	584.332833	-1841.972918	1150.881256	575.541609	-1910.870439	1151.934249	507.523095	-1658.877355	1202.909995	369.345721	-1622.743205	1137.617931	391.417273	-1583.486275	1217.796877	329.098642	-1972.393183	1024.186656	208.189296	-1989.084937	979.905911	432.230127	-2115.757359	1136.706260	337.705897	-2138.965274	1113.828053	306.701356	-2135.508537	1107.791913	363.120365	-1947.117116	831.291165	140.522677	-1865.011299	807.716481	157.979234	-1838.913933	841.570819	181.082327	-1846.476348	753.017836	164.924701	-1751.559398	638.186892	190.489888	-1741.506210	449.068214	244.277883	-1754.418420	418.081258	164.067174	-1736.377874	405.081922	205.285729	-1757.993703	326.613040	224.356595	-1863.125014	133.620315	198.094287	-1665.728129	161.510625	261.447927	-1667.436063	160.114709	158.392980	-1643.630869	176.406573	212.415745	-2217.978803	728.164159	462.715663	-2213.617245	661.628286	448.588476	-2186.428581	646.714737	437.006526	-2280.253562	613.840000	434.032850	-2357.985904	521.137041	412.487739	-2440.453027	412.431760	373.518282	-2539.983390	429.413747	413.165221	-2521.857850	389.377957	396.716773	-2557.020915	355.118451	366.362470	-2734.942083	322.478245	371.527789	-2781.843616	357.003872	317.993225	-2713.127229	144.854614	289.990920	-2714.815549	142.775445	333.924285	-2758.083834	167.786788	378.885984	
885	4.420000	-1667.494354	1750.185721	372.913034	-1832.390670	1749.398440	284.799585	-1805.602725	1730.325375	434.696263	-1882.287914	1570.002640	372.932012	-2028.439853	1250.347996	365.722426	-1763.608413	1463.880160	316.643292	-1812.862687	1596.116725	207.318405	-1977.028401	1511.864786	71.278715	-1963.713002	1469.261116	48.763665	-2025.093544	1469.363183	41.578537	-2065.843273	1398.935143	-2.936832	-2089.170071	1374.619811	77.670543	-1979.722761	1129.903180	-38.919140	-2028.872008	1139.316639	-99.759302	-1960.812724	1047.559524	-67.817822	-1743.039935	1509.412949	484.727252	-1812.596512	1296.504738	587.416623	-1777.325817	1268.662505	568.889829	-1815.463217	1226.832023	583.878772	-1815.224753	1153.460686	575.757706	-1883.351526	1154.566400	507.613257	-1631.652241	1199.631409	368.405292	-1596.561040	1134.183901	391.557178	-1556.032828	1212.329182	327.694612	-1944.337679	1024.778556	207.845170	-1958.111361	981.651604	432.011885	-2086.236830	1138.130401	338.022234	-2109.511703	1115.117029	307.146506	-2105.361501	1109.052282	363.458924	-1920.170495	829.652161	138.663563	-1838.133478	805.173173	155.294624	-1811.737042	838.554016	178.901262	-1820.217916	750.255547	162.018828	-1725.871525	634.416272	186.890037	-1707.272084	445.869783	241.753674	-1719.005554	413.475416	161.814097	-1700.343330	401.792196	203.175154	-1717.564127	322.440114	223.257207	-1812.344693	123.456259	199.156082	-1616.952651	164.906310	263.353051	-1617.879870	161.301358	160.318395	-1595.451444	180.088691	214.147783	-2184.831454	726.900384	462.785150	-2179.977499	660.565196	448.053829	-2152.770884	645.955870	436.409016	-2246.317146	612.285349	433.499348	-2324.232500	520.296086	410.892727	-2410.974992	415.720592	370.992357	-2509.691559	437.060469	410.783574	-2493.391762	396.459821	394.013519	-2530.212349	364.340298	363.234178	-2709.617125	341.147187	368.579442	-2754.464029	379.479061	316.355204	-2697.606514	163.815509	284.336178	-2698.645001	161.378443	328.322053	-2740.518906	187.767148	373.690257	
